solid WINGTE
  facet normal 1.0000000000 0.0000000000 0.0000000000
    outer loop
      vertex 0.2399999946 -0.0002000000 0.4410000145
      vertex 0.2399999946 -0.0005000000 0.6299999952
      vertex 0.2399999946 -0.0005000000 0.4410000145
    endloop
  endfacet
  facet normal 1.0000000000 0.0000000000 -0.0000000000
    outer loop
      vertex 0.2399999946 -0.0002000000 0.4410000145
      vertex 0.2399999946 -0.0002000000 0.6299999952
      vertex 0.2399999946 -0.0005000000 0.6299999952
    endloop
  endfacet
  facet normal 1.0000000000 0.0000000000 0.0000000000
    outer loop
      vertex 0.2399999946 0.0002000000 0.4410000145
      vertex 0.2399999946 -0.0002000000 0.6299999952
      vertex 0.2399999946 -0.0002000000 0.4410000145
    endloop
  endfacet
  facet normal 1.0000000000 0.0000000000 -0.0000000000
    outer loop
      vertex 0.2399999946 0.0002000000 0.4410000145
      vertex 0.2399999946 0.0002000000 0.6299999952
      vertex 0.2399999946 -0.0002000000 0.6299999952
    endloop
  endfacet
  facet normal 1.0000000000 0.0000000000 0.0000000000
    outer loop
      vertex 0.2399999946 0.0005000000 0.4410000145
      vertex 0.2399999946 0.0002000000 0.6299999952
      vertex 0.2399999946 0.0002000000 0.4410000145
    endloop
  endfacet
  facet normal 1.0000000000 0.0000000000 -0.0000000000
    outer loop
      vertex 0.2399999946 0.0005000000 0.4410000145
      vertex 0.2399999946 0.0005000000 0.6299999952
      vertex 0.2399999946 0.0002000000 0.6299999952
    endloop
  endfacet
  facet normal 1.0000000000 0.0000000000 0.0000000000
    outer loop
      vertex 0.2399999946 -0.0002000000 0.1889999956
      vertex 0.2399999946 -0.0005000000 0.4410000145
      vertex 0.2399999946 -0.0005000000 0.1889999956
    endloop
  endfacet
  facet normal 1.0000000000 0.0000000000 -0.0000000000
    outer loop
      vertex 0.2399999946 -0.0002000000 0.1889999956
      vertex 0.2399999946 -0.0002000000 0.4410000145
      vertex 0.2399999946 -0.0005000000 0.4410000145
    endloop
  endfacet
  facet normal 1.0000000000 0.0000000000 0.0000000000
    outer loop
      vertex 0.2399999946 0.0002000000 0.1889999956
      vertex 0.2399999946 -0.0002000000 0.4410000145
      vertex 0.2399999946 -0.0002000000 0.1889999956
    endloop
  endfacet
  facet normal 1.0000000000 0.0000000000 -0.0000000000
    outer loop
      vertex 0.2399999946 0.0002000000 0.1889999956
      vertex 0.2399999946 0.0002000000 0.4410000145
      vertex 0.2399999946 -0.0002000000 0.4410000145
    endloop
  endfacet
  facet normal 1.0000000000 0.0000000000 0.0000000000
    outer loop
      vertex 0.2399999946 0.0005000000 0.1889999956
      vertex 0.2399999946 0.0002000000 0.4410000145
      vertex 0.2399999946 0.0002000000 0.1889999956
    endloop
  endfacet
  facet normal 1.0000000000 0.0000000000 -0.0000000000
    outer loop
      vertex 0.2399999946 0.0005000000 0.1889999956
      vertex 0.2399999946 0.0005000000 0.4410000145
      vertex 0.2399999946 0.0002000000 0.4410000145
    endloop
  endfacet
  facet normal 1.0000000000 0.0000000000 0.0000000000
    outer loop
      vertex 0.2399999946 -0.0002000000 0.0000000000
      vertex 0.2399999946 -0.0005000000 0.1889999956
      vertex 0.2399999946 -0.0005000000 0.0000000000
    endloop
  endfacet
  facet normal 1.0000000000 0.0000000000 -0.0000000000
    outer loop
      vertex 0.2399999946 -0.0002000000 0.0000000000
      vertex 0.2399999946 -0.0002000000 0.1889999956
      vertex 0.2399999946 -0.0005000000 0.1889999956
    endloop
  endfacet
  facet normal 1.0000000000 0.0000000000 0.0000000000
    outer loop
      vertex 0.2399999946 0.0002000000 0.0000000000
      vertex 0.2399999946 -0.0002000000 0.1889999956
      vertex 0.2399999946 -0.0002000000 0.0000000000
    endloop
  endfacet
  facet normal 1.0000000000 0.0000000000 -0.0000000000
    outer loop
      vertex 0.2399999946 0.0002000000 0.0000000000
      vertex 0.2399999946 0.0002000000 0.1889999956
      vertex 0.2399999946 -0.0002000000 0.1889999956
    endloop
  endfacet
  facet normal 1.0000000000 0.0000000000 0.0000000000
    outer loop
      vertex 0.2399999946 0.0005000000 0.0000000000
      vertex 0.2399999946 0.0002000000 0.1889999956
      vertex 0.2399999946 0.0002000000 0.0000000000
    endloop
  endfacet
  facet normal 1.0000000000 0.0000000000 -0.0000000000
    outer loop
      vertex 0.2399999946 0.0005000000 0.0000000000
      vertex 0.2399999946 0.0005000000 0.1889999956
      vertex 0.2399999946 0.0002000000 0.1889999956
    endloop
  endfacet
endsolid WINGTE
